<svg width="125" height="108" viewBox="0 0 125 108" fill="none" xmlns="http://www.w3.org/2000/svg">
<g clip-path="url(#clip0_7719_999)">
<path d="M75.7959 35.0601C75.9514 35.0673 76.1054 35.0264 76.2369 34.9429C76.3684 34.8595 76.4712 34.7376 76.5312 34.5937C76.5913 34.4498 76.6058 34.2909 76.5727 34.1385C76.5395 33.9861 76.4605 33.8476 76.3462 33.7417C76.327 33.6655 76.3133 33.6107 76.2941 33.5345C76.301 33.5179 76.3079 33.5013 76.3148 33.4847C77.0138 31.8149 79.3829 31.8264 80.076 33.4987C80.6912 34.983 81.4744 36.4698 81.6672 38.0392C81.7522 38.7329 81.7163 39.4361 81.5613 40.1175C83.0062 36.9601 83.7565 33.5283 83.7613 30.0549C83.7616 29.1833 83.7133 28.3123 83.6165 27.4461C83.5365 26.736 83.4256 26.031 83.2837 25.331C82.5093 21.5329 80.8466 17.973 78.4322 14.9436C77.2636 14.3049 76.3185 13.3226 75.7244 12.1292C75.5091 11.7002 75.357 11.2423 75.2727 10.7696C75.4045 10.787 75.7698 8.77572 75.6703 8.65232C75.854 8.37305 76.1828 8.23423 76.3835 7.96171C77.3813 6.60641 78.7561 6.84306 79.4738 8.6848C81.0069 9.45998 81.0218 10.7456 80.081 11.982C79.4825 12.7686 79.4003 13.833 78.8752 14.6752C78.9292 14.7444 78.9854 14.8116 79.0394 14.8809C80.027 16.1531 80.8878 17.5192 81.6094 18.9596C81.4052 17.362 81.7066 15.4374 82.2205 14.1967C82.8054 12.7831 83.9017 11.5926 84.8672 10.3706C86.0269 8.90268 88.4049 9.54329 88.6092 11.404C88.6112 11.4221 88.6131 11.4401 88.615 11.4581C88.4716 11.5391 88.3312 11.6251 88.1939 11.7161C88.0213 11.8316 87.8876 11.9966 87.8103 12.1896C87.733 12.3825 87.7156 12.5943 87.7605 12.7972C87.8054 13.0002 87.9104 13.1848 88.0618 13.327C88.2133 13.4691 88.404 13.5621 88.6091 13.5938L88.6301 13.597C88.579 14.1148 88.4887 14.6279 88.36 15.132C89.5986 19.9305 86.9246 21.6782 83.1065 21.7567C83.0222 21.8 82.9401 21.8433 82.8558 21.8844C83.5808 23.9427 84.0355 26.0866 84.2086 28.2623C84.3066 29.5459 84.3008 30.8354 84.1913 32.1181L84.1978 32.0726C84.4745 30.6463 85.234 29.3593 86.3481 28.429C88.0028 27.0673 90.3406 26.5658 92.1258 25.4712C92.9851 24.9443 94.0863 25.6252 93.9363 26.6233C93.9339 26.6392 93.9315 26.6552 93.929 26.6711C93.6629 26.7797 93.4038 26.9048 93.1532 27.0456C93.0098 27.1267 92.8694 27.2127 92.7321 27.3037C92.5595 27.4192 92.4258 27.5842 92.3485 27.7771C92.2712 27.97 92.2538 28.1818 92.2987 28.3848C92.3436 28.5877 92.4486 28.7724 92.6 28.9145C92.7515 29.0567 92.9422 29.1497 93.1473 29.1813L93.1683 29.1846C93.1835 29.1867 93.1964 29.1889 93.2115 29.1911C92.7568 30.2787 92.1187 31.2798 91.325 32.1505C90.5505 36.3394 87.2243 36.7369 83.6662 35.517H83.664C83.2737 37.2165 82.708 38.8707 81.9763 40.4531H75.947C75.9253 40.386 75.9059 40.3167 75.8864 40.2495C76.4445 40.2847 77.0048 40.2513 77.5548 40.15C77.1074 39.6001 76.6601 39.0458 76.2128 38.496C76.2028 38.4857 76.1934 38.4748 76.1847 38.4635C75.9578 38.1821 75.7287 37.9028 75.5018 37.6213L75.5017 37.621C75.4896 36.7583 75.5884 35.8976 75.7957 35.0602L75.7959 35.0601Z" fill="#F2F2F2"/>
<path d="M95.1541 19.602C94.033 15.5073 103.075 11.996 105.45 15.2934C105.78 14.8246 107 14.5399 107.56 14.6837C108.12 14.8275 108.59 15.187 109.05 15.5351C109.681 16.0211 110.336 16.5245 110.724 17.2234C111.114 17.9194 111.174 18.8686 110.649 19.4726C110.233 19.9529 109.004 20.2635 108.378 20.3901C107.942 20.4792 107.574 20.5511 107.258 20.6029C106.971 20.1889 106.839 19.6868 106.885 19.1849C106.672 19.3286 106.494 19.5176 106.363 19.7384C106.232 19.9592 106.152 20.2063 106.127 20.462C106.118 20.5684 109.656 33.6061 109.656 33.6061C109.231 33.8484 108.784 34.0497 108.321 34.2072C107.405 32.8048 106.703 31.2731 106.239 29.6629C106.132 30.7396 106.146 31.8248 106.279 32.8986C106.35 33.5007 106.452 34.0987 106.584 34.6904C102.38 35.5993 96.0585 35.3002 93.308 31.4346C93.3075 31.4186 93.3071 31.4026 93.3067 31.3866C93.3045 31.234 93.2495 31.0869 93.151 30.9705C93.0525 30.8541 92.9167 30.7756 92.7668 30.7485C92.6169 30.7214 92.4622 30.7474 92.3293 30.8219C92.1964 30.8965 92.0935 31.015 92.0383 31.1572C91.9715 31.3277 91.9101 31.4754 91.8553 31.5928C91.0543 28.7223 92.0907 25.4004 95.1541 19.602Z" fill="#2F2E41"/>
<path d="M88.0016 88.2512V88.3853C87.9963 88.3408 87.9963 88.2958 88.0016 88.2512Z" fill="#2F2E41"/>
<path d="M92.1178 65.0779C92.2246 65.0489 92.3335 65.0277 92.4434 65.0145C92.3172 65.0351 92.2087 65.0563 92.1178 65.0779Z" fill="#2F2E41"/>
<path d="M92.0225 65.1022C92.0514 65.0941 92.0836 65.086 92.1178 65.0779C92.0859 65.0862 92.0553 65.0923 92.0225 65.1022Z" fill="#2F2E41"/>
<path d="M122.433 101.669H107.026C106.807 101.493 106.654 101.247 106.594 100.972C106.534 100.697 106.57 100.409 106.696 100.157C107.117 99.1904 106.293 98.3068 106.293 98.3068C106.013 97.9782 105.818 97.5854 105.726 97.1634C105.634 96.7413 105.647 96.303 105.765 95.8873C106.173 94.459 104.573 90.4278 104.573 90.4278C104.573 90.4278 103.711 95.6332 102.654 101.669H88.0016C87.7561 101.25 87.6267 100.773 87.6267 100.287C87.6267 99.8018 87.7561 99.3249 88.0016 98.9061C88.8555 97.4556 88.0016 97.1774 88.0016 97.1774C88.0016 97.1774 87.1477 95.5543 88.0016 94.3758C88.8555 93.1973 88.0016 88.3853 88.0016 88.3853C88.0338 88.5981 88.277 88.2112 88.6516 87.4002C89.2218 86.1662 90.0932 83.9471 90.9735 81.3708C91.6029 79.5321 92.2375 77.509 92.7677 75.5311H92.769C92.9081 75.0114 93.0398 74.4965 93.1642 73.9863C93.4074 72.9857 93.616 72.0135 93.7743 71.1006C94.1179 69.1342 94.2312 67.4451 93.9673 66.3465C93.7485 65.4323 93.2697 64.9281 92.4434 65.0145C92.8862 64.941 93.5349 64.8714 94.3342 64.8056C94.4783 64.794 94.6276 64.7824 94.7821 64.7695C100.744 64.3182 113.535 64.0591 113.535 64.0591L117.453 71.0877L122.415 79.9912C122.415 79.9912 122.28 91.9351 122.433 101.669Z" fill="#2F2E41"/>
<path d="M105.988 33.68L96.9619 31.7618L95.1697 35.3759L89.1342 38.8765C89.1342 38.8765 93.0246 54.8122 93.0024 57.0535C92.9461 62.7438 83.8578 75.4996 90.7225 74.5183C97.5872 73.537 98.9816 69.4266 101.185 70.0765C103.173 70.6627 105.6 73.2702 107.224 71.4053C108.849 69.5404 109.421 71.6939 110.449 71.7683C110.937 71.8037 110.643 69.4134 111.871 71.8426C113.1 74.2718 119.614 71.0019 117.406 68.7901C113.729 65.1066 112.982 37.9529 112.982 37.9529L108.888 36.6912L105.988 33.68Z" fill="#E6E6E6"/>
<path d="M88.9635 91.5519C89.3262 91.1187 89.5058 90.5607 89.4641 89.9968C89.4224 89.4329 89.1628 88.9076 88.7403 88.5326C88.6533 88.4577 88.5602 88.3902 88.462 88.3307L89.9712 80.9104L86.4822 78.8184L85.5118 89.2073C85.2971 89.6342 85.2295 90.1204 85.3196 90.5898C85.4097 91.0593 85.6524 91.4857 86.0098 91.8025C86.2149 91.9807 86.4531 92.1168 86.7107 92.2029C86.9683 92.289 87.2403 92.3234 87.5111 92.3042C87.782 92.2849 88.0465 92.2124 88.2894 92.0908C88.5323 91.9692 88.7489 91.8009 88.9269 91.5954C88.9393 91.5811 88.9515 91.5666 88.9635 91.5519Z" fill="#A0616A"/>
<path d="M99.7966 52.4388C99.7748 52.2002 99.471 52.0919 99.0501 51.9423C98.6274 51.8119 98.2256 51.6213 97.857 51.3763C96.9251 50.7019 97.2919 49.9966 97.7991 49.0218C97.8982 48.8323 98.0011 48.635 98.0977 48.43C98.3847 47.8226 97.9278 45.3173 96.7372 40.9823C96.3704 39.6477 96.3717 38.7052 96.1181 38.0798C95.8658 37.4544 95.36 37.1462 93.9815 37.0818C92.3153 36.9975 90.6837 37.5785 89.4445 38.6974C89.411 38.7271 89.3763 38.7593 89.3428 38.7903C89.2797 38.8496 89.2179 38.9102 89.1574 38.9721C88.0114 40.1271 87.3556 41.6813 87.3272 43.3097L87.3207 43.5869L87.0363 56.8318L86.237 68.4547L85.1352 84.4654L85.9513 84.5054L89.2076 84.6679L89.6028 84.6872L90.5398 80.7493L91.6673 76.0107L92.0817 74.27L93.3676 68.8699L93.9674 66.3465L94.3342 64.8056L94.4835 64.1764L95.212 61.1179C95.2287 61.0534 96.9045 54.4297 98.8365 53.322C99.5572 52.9094 99.8172 52.6696 99.7966 52.4388Z" fill="#E6E6E6"/>
<path d="M121.473 91.473C121.066 91.0813 120.828 90.5459 120.809 89.9808C120.79 89.4157 120.991 88.8654 121.371 88.4471C121.45 88.3633 121.535 88.2862 121.626 88.2165L119.33 81.0014L122.575 78.5462L124.653 88.7705C124.913 89.1719 125.032 89.648 124.993 90.1244C124.953 90.6009 124.758 91.0509 124.436 91.4043C124.252 91.6036 124.029 91.7645 123.783 91.8778C123.536 91.9911 123.269 92.0546 122.998 92.0646C122.726 92.0747 122.456 92.0311 122.201 91.9363C121.946 91.8415 121.713 91.6975 121.514 91.5123C121.5 91.4994 121.487 91.4863 121.473 91.473Z" fill="#A0616A"/>
<path d="M123.06 75.8172C123.06 75.8172 120.53 66.8978 121.301 65.9323C122.073 64.9667 119.794 64.7781 120.776 62.9798C121.758 61.1816 120.403 60.8808 120.403 60.8808L119.667 56.7462L118.352 46.5905L118.312 46.2885L117.929 43.3339C117.823 42.49 117.547 41.6763 117.119 40.9415C116.691 40.2068 116.12 39.566 115.439 39.0575C115.404 39.0309 115.369 39.0053 115.333 38.9797C115.171 38.8629 115.006 38.7547 114.837 38.6551C113.574 37.909 112.092 37.6269 110.644 37.8573C107.917 38.2829 108.766 39.3019 108.323 42.0317C107.604 46.4704 107.418 49.0098 107.768 49.5835C107.887 49.7767 108.011 49.9616 108.129 50.139C108.738 51.0549 109.178 51.7156 108.324 52.4878C107.983 52.7701 107.604 53.0023 107.198 53.1776C106.796 53.3725 106.506 53.5123 106.51 53.7519C106.514 53.9839 106.798 54.1935 107.558 54.5258C108.48 54.9297 109.469 56.4569 110.28 58.017C110.923 59.2746 111.497 60.5666 111.998 61.8873L118.965 81.5161L120.101 84.7173L120.493 84.6552L123.712 84.1439L124.519 84.0159L123.06 75.8172Z" fill="#E6E6E6"/>
<path d="M102.18 31.6263C106.247 31.6263 109.544 28.3232 109.544 24.2487C109.544 20.1742 106.247 16.8712 102.18 16.8712C98.113 16.8712 94.8159 20.1742 94.8159 24.2487C94.8159 28.3232 98.113 31.6263 102.18 31.6263Z" fill="#A0616A"/>
<path d="M91.1347 20.1772C90.0136 16.0825 99.0557 12.5712 101.43 15.8687C101.76 15.3999 102.98 15.1151 103.54 15.259C104.1 15.4028 104.571 15.7623 105.03 16.1103C105.662 16.5964 106.317 17.0997 106.704 17.7986C107.095 18.4947 107.155 19.4438 106.63 20.0478C106.213 20.5281 104.984 20.8388 104.359 20.9653C103.922 21.0545 103.555 21.1264 103.239 21.1781C102.952 20.7641 102.82 20.2621 102.866 19.7602C102.653 19.9038 102.475 20.0928 102.344 20.3136C102.213 20.5344 102.132 20.7815 102.108 21.0372C102.099 21.1436 105.636 34.1814 105.636 34.1814C105.211 34.4237 104.764 34.625 104.301 34.7825C103.385 33.3801 102.684 31.8483 102.22 30.2381C102.113 31.3148 102.127 32.4001 102.26 33.4738C102.331 34.0759 102.432 34.674 102.564 35.2657C98.361 36.1746 92.0391 35.8754 89.2886 32.0099C89.2881 31.9939 89.2877 31.9779 89.2872 31.9618C89.2851 31.8093 89.2301 31.6622 89.1316 31.5458C89.0331 31.4294 88.8972 31.3509 88.7473 31.3238C88.5974 31.2967 88.4428 31.3226 88.3099 31.3972C88.177 31.4717 88.0741 31.5903 88.0188 31.7325C87.9521 31.903 87.8907 32.0506 87.8359 32.1681C87.0349 29.2976 88.0713 25.9756 91.1347 20.1772Z" fill="#2F2E41"/>
<path d="M54.6123 45.6698C54.4568 45.677 54.3028 45.6361 54.1713 45.5527C54.0397 45.4692 53.937 45.3473 53.8769 45.2034C53.8169 45.0595 53.8024 44.9006 53.8355 44.7482C53.8686 44.5958 53.9477 44.4573 54.062 44.3514C54.0812 44.2752 54.0949 44.2204 54.114 44.1442C54.1072 44.1276 54.1003 44.111 54.0934 44.0945C53.3943 42.4246 51.0252 42.4362 50.3322 44.1085C49.717 45.5927 48.9338 47.0795 48.7409 48.6489C48.656 49.3426 48.6918 50.0458 48.8468 50.7272C47.402 47.5698 46.6517 44.138 46.6469 40.6646C46.6466 39.793 46.6949 38.9221 46.7917 38.0559C46.8716 37.3458 46.9826 36.6407 47.1245 35.9407C47.8989 32.1426 49.5616 28.5827 51.976 25.5534C53.1446 24.9146 54.0896 23.9324 54.6838 22.739C54.899 22.31 55.0512 21.852 55.1355 21.3794C55.0036 21.3967 54.6384 19.3855 54.7378 19.2621C54.5541 18.9828 54.2253 18.844 54.0247 18.5715C53.0268 17.2162 51.6521 17.4528 50.9344 19.2945C49.4012 20.0697 49.3864 21.3553 50.3271 22.5917C50.9256 23.3784 51.0079 24.4428 51.533 25.2849C51.479 25.3542 51.4228 25.4213 51.3688 25.4906C50.3811 26.7628 49.5204 28.1289 48.7988 29.5694C49.0029 27.9718 48.7015 26.0471 48.1877 24.8065C47.6028 23.3929 46.5064 22.2023 45.541 20.9803C44.3813 19.5124 42.0033 20.153 41.799 22.0138C41.797 22.0318 41.7951 22.0498 41.7932 22.0678C41.9366 22.1489 42.077 22.2349 42.2143 22.3259C42.3868 22.4414 42.5205 22.6064 42.5979 22.7993C42.6752 22.9922 42.6926 23.204 42.6477 23.407C42.6028 23.6099 42.4978 23.7946 42.3463 23.9367C42.1949 24.0789 42.0041 24.1719 41.7991 24.2035L41.7781 24.2068C41.8291 24.7245 41.9194 25.2377 42.0482 25.7417C40.8096 30.5402 43.4836 32.2879 47.3017 32.3664C47.386 32.4097 47.4681 32.453 47.5524 32.4942C46.8274 34.5524 46.3726 36.6963 46.1996 38.8721C46.1016 40.1557 46.1073 41.4451 46.2168 42.7278L46.2104 42.6823C45.9337 41.256 45.1742 39.9691 44.0601 39.0388C42.4054 37.677 40.0676 37.1755 38.2824 36.081C37.4231 35.5541 36.3219 36.235 36.4719 37.233C36.4743 37.249 36.4767 37.2649 36.4792 37.2808C36.7453 37.3894 37.0044 37.5145 37.255 37.6554C37.3984 37.7364 37.5388 37.8224 37.6761 37.9134C37.8487 38.0289 37.9823 38.1939 38.0597 38.3868C38.137 38.5797 38.1544 38.7916 38.1095 38.9945C38.0646 39.1975 37.9596 39.3821 37.8081 39.5243C37.6567 39.6664 37.466 39.7594 37.2609 39.7911L37.2398 39.7943C37.2247 39.7965 37.2118 39.7986 37.1966 39.8008C37.6513 40.8884 38.2895 41.8896 39.0832 42.7603C39.8577 46.9492 43.1839 47.3466 46.742 46.1268H46.7441C47.1345 47.8262 47.7002 49.4805 48.4319 51.0628H54.4612C54.4828 50.9957 54.5023 50.9264 54.5217 50.8593C53.9636 50.8944 53.4034 50.861 52.8534 50.7597C53.3007 50.2098 53.7481 49.6556 54.1954 49.1057C54.2054 49.0954 54.2148 49.0846 54.2235 49.0732C54.4504 48.7918 54.6795 48.5125 54.9064 48.2311L54.9065 48.2307C54.9186 47.368 54.8198 46.5074 54.6125 45.67L54.6123 45.6698Z" fill="#F2F2F2"/>
<path d="M26.4791 15.2936C26.3423 15.613 22.1229 15.5788 21.9297 15.8633C20.4397 18.0595 25.8107 27.404 24.3207 29.603L24.1132 29.8509C24.5993 29.6264 25.0662 29.3625 25.5093 29.0618C25.5491 28.1617 25.5889 27.2587 25.6316 26.3585C26.0778 26.9305 26.438 27.5648 26.7007 28.2414C27.0476 27.9965 27.3322 27.5423 28.819 26.6491C29.421 25.9866 30.1149 25.4144 30.8796 24.9499L26.4791 15.2936Z" fill="#2F2E41"/>
<path d="M29.5431 33.293C29.0775 32.9891 28.5462 32.8009 27.9934 32.7439C27.4406 32.6869 26.8823 32.7627 26.3646 32.9652C25.847 33.1677 25.385 33.4909 25.017 33.9081C24.649 34.3252 24.3857 34.8243 24.2488 35.3638L17.8368 52.1009L6.81533 45.8324C6.76694 45.1119 6.49202 44.4253 6.03 43.871C5.56797 43.3167 4.94259 42.9232 4.24354 42.747C3.54449 42.5707 2.80768 42.6208 2.1388 42.89C1.46992 43.1592 0.90333 43.6337 0.520286 44.2455C0.137243 44.8573 -0.0425715 45.5748 0.0066336 46.2953C0.0558387 47.0157 0.331536 47.7021 0.794182 48.2558C1.25683 48.8096 1.88265 49.2024 2.5819 49.3778C3.28115 49.5533 4.0179 49.5024 4.68648 49.2324C7.0075 51.7141 17.07 61.8888 21.2358 57.9133C24.7373 54.5717 29.7905 41.6207 31.0069 37.1485C31.2017 36.4334 31.165 35.6747 30.9019 34.9819C30.6389 34.289 30.1631 33.6976 29.5431 33.293Z" fill="#FFB6B6"/>
<path d="M17.5031 58.6147L19.5265 67.7767L34.3225 69.1175L35.6823 61.1398L17.5031 58.6147Z" fill="#FFB6B6"/>
<path d="M40.1042 82.1096C40.0974 82.2409 40.0893 82.3709 40.0799 82.5023C39.9379 84.4007 39.7757 86.5902 39.6 88.9895C39.3229 92.7972 39.0134 97.1328 38.7012 101.669H7.66661L13.6854 83.5454C13.6854 83.5454 16.1157 82.205 14.8784 79.9532C13.6412 77.7014 16.0757 79.4958 16.0983 76.28C16.121 73.0641 18.3025 69.6428 18.3025 69.6428L18.6607 64.7736L18.8648 64.7777L35.0153 65.0471L35.31 65.0526L35.806 69.2325C38.8179 72.823 40.3544 77.4264 40.1042 82.1096Z" fill="#2F2E41"/>
<path d="M26.7378 28.8527L34.1024 28.4727L37.5231 33.8875C37.5231 33.8875 43.9592 34.9655 43.5131 42.5633C43.0669 50.1611 35.6823 56.8282 35.6823 56.8282L35.9979 55.744L35.4497 57.3133L35.52 58.1945L36.2679 59.1277L36.3449 60.0928L35.6823 61.6198C35.7684 61.7582 35.8142 61.918 35.8143 62.0811C35.8144 62.2441 35.7688 62.404 35.6829 62.5425C35.5969 62.681 35.4739 62.7925 35.3278 62.8645C35.1817 62.9365 35.0184 62.9661 34.8565 62.9498L24.2151 61.8815C23.9728 61.2138 23.7784 60.4149 22.8073 61.7448L21.8049 61.6475L17.6378 61.2431L17.3925 60.348C17.2531 59.8394 17.2314 59.3056 17.329 58.7873C17.4266 58.2691 17.6409 57.7799 17.9556 57.3571C17.5936 56.2216 17.6884 54.9895 18.2198 53.923L18.2397 53.883L18.6823 53.5135C18.6823 53.5135 13.8409 46.2269 19.3987 40.7387L21.6293 36.9398L24.1252 33.8892L26.7378 28.8527Z" fill="#6C63FF"/>
<path d="M28.5707 25.6563C32.4277 25.6563 35.5544 22.524 35.5544 18.6601C35.5544 14.7961 32.4277 11.6638 28.5707 11.6638C24.7137 11.6638 21.587 14.7961 21.587 18.6601C21.587 22.524 24.7137 25.6563 28.5707 25.6563Z" fill="#FFB6B6"/>
<path d="M33.8749 28.7387C33.3062 28.2627 32.9103 27.6118 32.7489 26.8872C32.6197 27.767 32.6535 28.6631 32.8484 29.5306C32.4702 29.8155 32.1034 30.0861 31.7565 30.3311C31.4939 29.6545 31.1337 29.0201 30.6874 28.4482C30.6448 29.3483 30.6049 30.2513 30.5651 31.1515C30.122 31.4522 29.6551 31.7161 29.169 31.9405L29.3766 31.6927C30.8665 29.4936 27.0108 25.4458 28.5008 23.2496C28.9188 22.6343 27.0308 17.7718 25.592 17.5525C24.3124 17.3588 24.3665 17.7291 23.1267 17.9997C22.998 17.4618 22.7981 16.9436 22.5325 16.4586C22.6032 16.999 22.5869 17.5472 22.4841 18.0823C22.0434 18.0994 21.6966 17.8181 21.2273 17.7462C18.2332 17.2876 18.5374 14.0431 19.3706 13.0148C20.2065 11.9893 22.9817 11.6816 24.2613 11.3484C24.3778 11.2344 24.6423 11.3056 24.7589 11.1974C27.211 8.94916 30.4907 8.57684 33.442 9.5733C36.5894 10.636 38.5517 12.6927 39.5589 15.8633L39.8478 18.4006C40.1069 19.2165 39.7809 23.0125 39.5589 23.8392C38.6959 27.053 36.858 25.4487 33.8749 28.7387Z" fill="#2F2E41"/>
<path d="M44.0578 61.8854L43.7828 40.4338C43.7685 39.525 43.3981 38.6583 42.7515 38.0207C42.1049 37.3831 41.234 37.0258 40.3267 37.0258C39.8573 37.0258 39.3929 37.1215 38.9617 37.3072C38.5305 37.4929 38.1415 37.7646 37.8186 38.1058C37.4956 38.447 37.2454 38.8505 37.0832 39.2917C36.9209 39.7329 36.8501 40.2026 36.875 40.6722L37.8425 62.9463L37.8609 76.5057C37.2906 76.748 36.8087 77.1602 36.4805 77.6864C36.1523 78.2126 35.9937 78.8273 36.0263 79.447C36.059 80.0666 36.2813 80.6611 36.6629 81.1498C37.0446 81.6385 37.5672 81.9976 38.1597 82.1784C38.7522 82.3591 39.3859 82.3528 39.9747 82.1602C40.5635 81.9676 41.0788 81.5981 41.4507 81.1019C41.8225 80.6057 42.0329 80.0069 42.0532 79.3867C42.0735 78.7665 41.9027 78.1552 41.5641 77.6356L44.0578 61.8854Z" fill="#FFB6B6"/>
<path d="M80.1014 89.6386C80.1014 89.6386 79.6763 97.3001 79.4809 101.669H64.8419C64.5406 97.6931 64.4391 94.7716 64.4391 94.7716L63.6381 101.669H48.841L47.9236 88.8944L52.3568 77.8857C52.3568 77.8857 76.3813 76.2165 78.6098 78.334C80.8368 80.45 80.1014 89.6386 80.1014 89.6386Z" fill="#2F2E41"/>
<path d="M67.1563 25.1898C71.5725 25.1898 75.1526 21.6033 75.1526 17.1792C75.1526 12.755 71.5725 9.16852 67.1563 9.16852C62.7401 9.16852 59.1601 12.755 59.1601 17.1792C59.1601 21.6033 62.7401 25.1898 67.1563 25.1898Z" fill="#FFB6B6"/>
<path d="M76.4768 14.5762C75.6554 14.9514 75.1233 17.6687 74.4777 17.037C73.8322 16.4052 73.8752 15.5832 73.0049 15.35C72.3021 15.161 71.5457 15.3771 70.9046 15.7179C70.7901 15.778 70.6792 15.8434 70.571 15.9084C70.4996 15.8606 70.4286 15.8156 70.3523 15.7741C69.7788 15.4667 69.1095 15.3913 68.4823 15.5634C68.9779 15.7297 69.4089 16.048 69.7142 16.4731C69.4996 16.6171 69.2823 16.7615 69.06 16.8895C67.2028 17.9631 64.5602 15.6285 62.6054 14.7515C63.8299 17.0533 63.2269 18.0067 62.1638 20.3873L62.1271 20.5228C62.1875 19.9262 60.3445 19.4815 60.4514 20.3214C60.5272 20.9178 61.0424 22.2433 61.3309 22.7698C59.2757 20.3891 57.8712 17.4757 58.1675 14.4703C58.2321 13.839 58.2126 13.1729 58.5377 12.6249C58.863 12.0798 59.5414 11.6972 60.1416 11.9051C60.0907 10.9467 60.3001 9.99232 60.7474 9.14355C61.1947 8.29478 61.8632 7.5833 62.6819 7.08476C63.5006 6.58621 64.4389 6.31924 65.3969 6.31222C66.355 6.30519 67.297 6.55838 68.1229 7.04486C68.8903 7.49598 69.531 8.13401 70.2343 8.68435C70.9377 9.2347 71.7485 9.71441 72.6404 9.75985C73.2062 9.78718 73.822 9.6488 74.308 9.94237C74.8711 10.283 74.9676 10.9962 75.052 11.6825C74.5498 11.7321 74.0737 11.9306 73.6847 12.2526C74.2043 12.1995 74.7275 12.3119 75.1797 12.5738C75.1882 12.5777 75.1964 12.5824 75.2041 12.5878C75.5018 13.722 75.4713 13.9734 76.4768 14.5762Z" fill="#2F2E41"/>
<path d="M48.8765 81.7612C55.686 73.7763 53.3859 63.62 50.6833 53.3678L51.1975 38.2222C51.2228 37.4792 51.4261 36.7533 51.7903 36.1056C52.1545 35.458 52.669 34.9076 53.2902 34.501L60.2418 29.9514L62.9475 26.0323L70.4057 26.7795L74.5415 31.1612L79.1195 34.6624C80.269 35.5415 81.1436 36.7315 81.6402 38.0921C82.1369 39.4527 82.2348 40.9272 81.9226 42.3418L77.5417 62.1896C77.5417 62.1896 79.374 72.4788 78.256 73.6152C77.1379 74.7516 74.2571 73.6158 76.5416 74.8914C79.2832 76.4223 81.7761 76.1398 80.3887 77.5297C79.0013 78.9196 80.7571 80.852 80.7571 80.852L48.8765 81.7612Z" fill="#6C63FF"/>
<path d="M51.7879 93.3661L52.9231 85.2638L48.3934 83.9683L47.4974 92.5774C47.1225 92.9218 46.8509 93.3641 46.7132 93.8545C46.5755 94.345 46.5771 94.8643 46.7178 95.3539C46.8585 95.8435 47.1327 96.2841 47.5097 96.6262C47.8867 96.9682 48.3514 97.1982 48.8516 97.2901C49.3519 97.3821 49.8678 97.3324 50.3415 97.1468C50.8151 96.9611 51.2276 96.6467 51.5327 96.239C51.8378 95.8313 52.0233 95.3465 52.0683 94.839C52.1134 94.3314 52.0163 93.8214 51.7879 93.3661Z" fill="#FFB6B6"/>
<path d="M60.4117 31.4119C60.4117 31.4119 47.5181 35.6159 47.2107 38.6919C46.9033 41.7679 47.0052 43.651 45.6444 55.9598L45.7161 89.1165C45.7161 89.1165 54.3604 90.9706 53.4739 88.9882C52.5874 87.0059 52.8967 86.0732 52.8967 86.0732C52.8967 86.0732 54.7501 85.3405 54.2861 83.0129C53.8222 80.6852 56.1488 69.1503 56.1488 69.1503L57.6172 48.4629L60.4117 31.4119Z" fill="#6C63FF"/>
<path d="M76.3097 92.9371L75.7056 84.7777L80.3102 83.7816L80.6425 92.431C80.9941 92.7991 81.2362 93.2583 81.3417 93.7567C81.4471 94.2552 81.4116 94.7732 81.2393 95.2526C81.0669 95.7319 80.7645 96.1536 80.366 96.4703C79.9676 96.7869 79.4888 96.9859 78.9836 97.0449C78.4785 97.1039 77.9669 97.0206 77.5064 96.8043C77.0459 96.588 76.6547 96.2473 76.3769 95.8205C76.0991 95.3937 75.9456 94.8977 75.9338 94.3883C75.9219 93.879 76.0521 93.3764 76.3097 92.9371Z" fill="#FFB6B6"/>
<path d="M71.7467 30.5507C71.7467 30.5507 84.3384 35.59 84.4445 38.6795C84.5506 41.7691 84.326 43.6414 84.8808 56.013L82.6458 89.0942C82.6458 89.0942 73.899 90.3782 74.913 88.4581C75.9269 86.538 75.6791 85.5871 75.6791 85.5871C75.6791 85.5871 73.8775 84.7346 74.4924 82.4424C75.1072 80.1501 73.5382 68.4874 73.5382 68.4874L73.4227 47.7482L71.7467 30.5507Z" fill="#6C63FF"/>
</g>
<defs>
<clipPath id="clip0_7719_999">
<rect width="125" height="95.339" fill="white" transform="translate(0 6.33051)"/>
</clipPath>
</defs>
</svg>
