<svg width="125" height="108" viewBox="0 0 125 108" fill="none" xmlns="http://www.w3.org/2000/svg">
<g clip-path="url(#clip0_7719_933)">
<path d="M0 106.416C0 106.573 0.126278 106.698 0.283525 106.698H124.716C124.874 106.698 125 106.573 125 106.416C125 106.26 124.874 106.135 124.716 106.135H0.283525C0.126276 106.135 0 106.26 0 106.416Z" fill="#3F3C57"/>
<path d="M40.5988 11.8714L41.952 18.0046L39.0738 26.5415L34.4367 17.3693L35.0801 12.0482L40.5988 11.8714Z" fill="#FDB4B4"/>
<path d="M42.2034 17.687H34.1968V27.296H42.2034V17.687Z" fill="#6C63FF"/>
<path d="M38.911 14.9608C41.9308 14.9608 44.3789 12.5292 44.3789 9.52967C44.3789 6.53012 41.9308 4.09851 38.911 4.09851C35.8911 4.09851 33.443 6.53012 33.443 9.52967C33.443 12.5292 35.8911 14.9608 38.911 14.9608Z" fill="#FDB4B4"/>
<path d="M34.1514 13.5683C34.1514 13.5683 30.0755 6.09156 33.7504 2.49357C37.4252 -1.10442 40.3752 1.26643 40.3752 1.26643L42.0597 1.19881C42.0597 1.19881 42.4111 2.5156 42.9776 1.80276C43.5441 1.08993 44.5678 3.68598 44.5678 3.68598C46.4678 7.08483 39.8811 7.84624 39.8811 7.84624C39.8811 7.84624 40.3568 9.35114 39.8733 9.6663C39.3899 9.98146 38.0982 11.167 38.0982 11.167L36.9421 12.0343L36.255 10.9946C36.255 10.9946 35.5373 10.4319 35.1748 10.6682C34.8122 10.9046 35.3109 14.0147 35.3109 14.0147L34.1514 13.5683Z" fill="#2E2E41"/>
<path d="M27.5918 68.5732L25.5013 99.5473L30.6405 99.7203L37.4347 68.8328L27.5918 68.5732Z" fill="#2E2E41"/>
<path d="M40.0479 68.4002L37.9574 99.3743L43.0966 99.5473L49.8909 68.6598L40.0479 68.4002Z" fill="#2E2E41"/>
<path d="M26.3329 75.6499L29.0688 41.9148L24.8732 24.3482C24.5115 21.7369 26.168 19.2661 28.7245 18.5923L32.83 17.5105L34.6471 15.7055L38.7802 24.7713L41.3615 15.7124L43.3746 17.1667L49.3454 19.7831L49.3426 19.8444L48.3849 41.0648L50.5227 75.3496L50.4279 75.3508L26.3329 75.6499Z" fill="#E8E9EA"/>
<path d="M42.7666 99.1953L44.2547 103.608C44.2547 103.608 50.0764 104.394 50.167 106.184C50.2576 107.974 42.255 106.938 37.569 107.172C32.883 107.406 36.7837 102.366 36.7837 102.366L37.2831 99.4691L42.7666 99.1953Z" fill="#2E2E41"/>
<path d="M30.6141 98.8777L32.1022 103.29C32.1022 103.29 37.9239 104.076 38.0145 105.867C38.1051 107.657 30.1025 106.62 25.4165 106.854C20.7305 107.088 24.6312 102.048 24.6312 102.048L25.1306 99.1514L30.6141 98.8777Z" fill="#2E2E41"/>
<path d="M23.354 57.7336C23.2909 56.8636 23.4385 55.9913 23.7845 55.1896L22.6739 46.1402L27.0244 45.7413L27.6825 54.9637C28.1197 55.7198 28.3682 56.569 28.4073 57.4401C28.5353 59.6191 27.5077 61.4503 26.1121 61.5312C24.7165 61.6121 23.4816 59.9118 23.354 57.7336Z" fill="#FDB4B4"/>
<path d="M50.9092 59.0619C50.8557 58.1912 51.0129 57.3205 51.3676 56.5226L50.3564 47.4618L54.7111 47.11L55.2679 56.339C55.6967 57.0998 55.936 57.9516 55.9655 58.8231C56.0695 61.0033 55.0219 62.8233 53.6255 62.8891C52.2291 62.9548 51.0129 61.2413 50.9092 59.0619Z" fill="#FDB4B4"/>
<path d="M22.656 54.1045L22.6413 54.0264L20.3739 41.9427L23.0531 22.2658C23.2921 20.509 24.8714 19.2436 26.6523 19.385C27.5823 19.4589 28.4168 19.8971 29.0021 20.6189C29.5874 21.3407 29.8406 22.2439 29.7151 23.1622L27.6987 37.9197L28.9683 53.7042L22.656 54.1045Z" fill="#E8E9EA"/>
<path d="M49.5655 53.8209L45.0069 23.5966C44.77 22.7103 44.9087 21.7828 45.3995 20.9947C45.8903 20.2066 46.6638 19.6692 47.5775 19.4815C49.3256 19.1224 51.0518 20.1837 51.508 21.8974L55.8874 53.4414L49.5655 53.8209Z" fill="#E8E9EA"/>
<path d="M38.9139 27.5341C39.223 27.5341 39.4736 27.2853 39.4736 26.9783C39.4736 26.6712 39.223 26.4224 38.9139 26.4224C38.6048 26.4224 38.3542 26.6712 38.3542 26.9783C38.3542 27.2853 38.6048 27.5341 38.9139 27.5341Z" fill="#D6D7D8"/>
<path d="M38.9139 31.7431C39.223 31.7431 39.4736 31.4942 39.4736 31.1872C39.4736 30.8802 39.223 30.6313 38.9139 30.6313C38.6048 30.6313 38.3542 30.8802 38.3542 31.1872C38.3542 31.4942 38.6048 31.7431 38.9139 31.7431Z" fill="#D6D7D8"/>
<path d="M38.9139 35.9519C39.223 35.9519 39.4736 35.703 39.4736 35.396C39.4736 35.089 39.223 34.8401 38.9139 34.8401C38.6048 34.8401 38.3542 35.089 38.3542 35.396C38.3542 35.703 38.6048 35.9519 38.9139 35.9519Z" fill="#D6D7D8"/>
<path d="M38.9139 40.1608C39.223 40.1608 39.4736 39.9119 39.4736 39.6049C39.4736 39.2979 39.223 39.049 38.9139 39.049C38.6048 39.049 38.3542 39.2979 38.3542 39.6049C38.3542 39.9119 38.6048 40.1608 38.9139 40.1608Z" fill="#D6D7D8"/>
<path d="M38.9139 44.3696C39.223 44.3696 39.4736 44.1208 39.4736 43.8138C39.4736 43.5068 39.223 43.2579 38.9139 43.2579C38.6048 43.2579 38.3542 43.5068 38.3542 43.8138C38.3542 44.1208 38.6048 44.3696 38.9139 44.3696Z" fill="#D6D7D8"/>
<path d="M38.9139 48.5786C39.223 48.5786 39.4736 48.3297 39.4736 48.0227C39.4736 47.7157 39.223 47.4668 38.9139 47.4668C38.6048 47.4668 38.3542 47.7157 38.3542 48.0227C38.3542 48.3297 38.6048 48.5786 38.9139 48.5786Z" fill="#D6D7D8"/>
<path d="M38.9139 52.7874C39.223 52.7874 39.4736 52.5386 39.4736 52.2315C39.4736 51.9245 39.223 51.6757 38.9139 51.6757C38.6048 51.6757 38.3542 51.9245 38.3542 52.2315C38.3542 52.5386 38.6048 52.7874 38.9139 52.7874Z" fill="#D6D7D8"/>
<path d="M38.9139 56.9963C39.223 56.9963 39.4736 56.7474 39.4736 56.4404C39.4736 56.1334 39.223 55.8845 38.9139 55.8845C38.6048 55.8845 38.3542 56.1334 38.3542 56.4404C38.3542 56.7474 38.6048 56.9963 38.9139 56.9963Z" fill="#D6D7D8"/>
<path d="M38.9146 60.2521L28.3253 58.8504L28.1213 58.8235L22.7094 46.4288L19.4864 39.0493H27.8813L38.9146 60.2521Z" fill="#6C63FF"/>
<path d="M81.372 13.2198L88.1044 9.55646V20.0233H80.3182L81.372 13.2198Z" fill="#2E2E41"/>
<path d="M89.5479 15.5534L90.1692 20.692L85.6912 29.5495L82.9117 21.3055L84.2185 15.3828L89.5479 15.5534Z" fill="#FDB4B4"/>
<path d="M90.4008 20.9988H82.6689V30.278H90.4008V20.9988Z" fill="#6C63FF"/>
<path d="M96.7792 70.1389L98.798 100.05L93.8351 100.217L87.274 70.3896L96.7792 70.1389Z" fill="#2E2E41"/>
<path d="M84.7505 69.9719L86.7693 99.8831L81.8064 100.05L75.2453 70.2225L84.7505 69.9719Z" fill="#2E2E41"/>
<path d="M102.023 76.483L101.904 76.4826L70.2883 76.3801L70.3167 76.2689L78.4451 44.2807L76.4089 28.1374C76.0231 25.0785 77.6718 22.1871 80.5113 20.9428L81.5365 20.4936L83.484 19.0869L85.9753 27.8311L89.965 19.0801L91.7225 20.8255L95.6861 21.8701C98.1566 22.5211 99.7571 24.9086 99.4091 27.4236L99.4048 27.4411L93.3519 44.5965L102.023 76.483Z" fill="#E8E9EA"/>
<path d="M82.1251 99.7103L87.4205 99.9746L87.9027 102.772C87.9027 102.772 91.6696 107.639 87.1444 107.413C82.6192 107.187 74.8911 108.188 74.9786 106.459C75.0661 104.731 80.6881 103.971 80.6881 103.971L82.1251 99.7103Z" fill="#2E2E41"/>
<path d="M93.8606 99.4035L99.156 99.6679L99.6382 102.465C99.6382 102.465 103.405 107.332 98.8799 107.107C94.3547 106.881 86.6266 107.881 86.7141 106.153C86.8016 104.424 92.4235 103.665 92.4235 103.665L93.8606 99.4035Z" fill="#2E2E41"/>
<path d="M98.7098 59.3645C98.5866 61.4679 97.394 63.1098 96.0463 63.0317C94.6985 62.9536 93.7063 61.1852 93.8298 59.081C93.8676 58.2398 94.1076 57.4198 94.5298 56.6896L95.1653 47.7836L99.3665 48.1689L98.294 56.9077C98.6282 57.6819 98.7707 58.5243 98.7098 59.3645Z" fill="#FDB4B4"/>
<path d="M77.12 58.5646C76.9517 60.665 75.7242 62.2813 74.3785 62.1747C73.0327 62.0681 72.0786 60.2792 72.2472 58.1781C72.303 57.3379 72.5605 56.5231 72.9983 55.802L73.8244 46.9115L78.0165 47.3855L76.757 56.0997C77.0744 56.8807 77.1989 57.726 77.12 58.5646Z" fill="#FDB4B4"/>
<path d="M99.3863 55.8631L93.2848 55.4763L93.2922 55.3854L94.511 40.2305L92.564 25.9798C92.4426 25.0922 92.6873 24.2191 93.253 23.5214C93.8187 22.8237 94.6253 22.4002 95.5245 22.3287C97.2459 22.1939 98.7722 23.4153 99.0034 25.1133L101.591 44.1155L101.588 44.1297L99.3863 55.8631Z" fill="#E8E9EA"/>
<path d="M78.1358 55.2826L72.0245 54.9156L72.0379 54.8198L76.2521 24.4611C76.6953 22.7938 78.3645 21.7682 80.0535 22.1151C80.9368 22.2966 81.6843 22.816 82.1587 23.5779C82.6332 24.3397 82.7673 25.2361 82.5362 26.1021L78.1358 55.2826Z" fill="#E8E9EA"/>
<path d="M85.8456 30.5081C86.1441 30.5081 86.386 30.2677 86.386 29.9713C86.386 29.6748 86.1441 29.4344 85.8456 29.4344C85.5471 29.4344 85.3051 29.6748 85.3051 29.9713C85.3051 30.2677 85.5471 30.5081 85.8456 30.5081Z" fill="#D6D7D8"/>
<path d="M85.8456 34.5725C86.1441 34.5725 86.386 34.3322 86.386 34.0357C86.386 33.7392 86.1441 33.4989 85.8456 33.4989C85.5471 33.4989 85.3051 33.7392 85.3051 34.0357C85.3051 34.3322 85.5471 34.5725 85.8456 34.5725Z" fill="#D6D7D8"/>
<path d="M85.8456 38.637C86.1441 38.637 86.386 38.3966 86.386 38.1002C86.386 37.8037 86.1441 37.5634 85.8456 37.5634C85.5471 37.5634 85.3051 37.8037 85.3051 38.1002C85.3051 38.3966 85.5471 38.637 85.8456 38.637Z" fill="#D6D7D8"/>
<path d="M85.8456 42.7014C86.1441 42.7014 86.386 42.4611 86.386 42.1646C86.386 41.8681 86.1441 41.6278 85.8456 41.6278C85.5471 41.6278 85.3051 41.8681 85.3051 42.1646C85.3051 42.4611 85.5471 42.7014 85.8456 42.7014Z" fill="#D6D7D8"/>
<path d="M85.8456 46.7659C86.1441 46.7659 86.386 46.5256 86.386 46.2291C86.386 45.9326 86.1441 45.6923 85.8456 45.6923C85.5471 45.6923 85.3051 45.9326 85.3051 46.2291C85.3051 46.5256 85.5471 46.7659 85.8456 46.7659Z" fill="#D6D7D8"/>
<path d="M85.8456 50.8303C86.1441 50.8303 86.386 50.59 86.386 50.2935C86.386 49.9971 86.1441 49.7567 85.8456 49.7567C85.5471 49.7567 85.3051 49.9971 85.3051 50.2935C85.3051 50.59 85.5471 50.8303 85.8456 50.8303Z" fill="#D6D7D8"/>
<path d="M85.8456 54.8948C86.1441 54.8948 86.386 54.6545 86.386 54.358C86.386 54.0615 86.1441 53.8212 85.8456 53.8212C85.5471 53.8212 85.3051 54.0615 85.3051 54.358C85.3051 54.6545 85.5471 54.8948 85.8456 54.8948Z" fill="#D6D7D8"/>
<path d="M85.8456 58.9592C86.1441 58.9592 86.386 58.7189 86.386 58.4224C86.386 58.126 86.1441 57.8856 85.8456 57.8856C85.5471 57.8856 85.3051 58.126 85.3051 58.4224C85.3051 58.7189 85.5471 58.9592 85.8456 58.9592Z" fill="#D6D7D8"/>
<path d="M86.666 18.176C89.4579 18.176 91.7211 15.928 91.7211 13.1549C91.7211 10.3818 89.4579 8.13379 86.666 8.13379C83.8742 8.13379 81.6109 10.3818 81.6109 13.1549C81.6109 15.928 83.8742 18.176 86.666 18.176Z" fill="#FDB4B4"/>
<path d="M89.3152 7.29336C89.5574 7.7827 89.1733 8.39395 88.6649 8.59968C88.1564 8.80542 87.5821 8.72206 87.0399 8.63642C86.4978 8.55079 85.9226 8.46958 85.4157 8.67895C84.7598 8.94986 84.3901 9.62944 84.0715 10.2601C83.4767 11.4373 82.882 12.6146 82.2872 13.7919C81.9967 14.3671 81.6995 14.9681 81.6939 15.6116C81.6836 16.7929 82.627 17.7369 83.1346 18.8051C83.7526 20.1058 83.7017 21.6998 83.0018 22.9589C82.302 24.2181 80.9711 25.1102 79.5336 25.2837C79.1554 25.3294 78.7552 25.3244 78.4151 25.1538C78.0751 24.9831 77.8156 24.6104 77.8785 24.2372C78.0017 23.5072 79.1247 23.3367 79.3309 22.6254C79.4386 22.2541 79.2479 21.8576 78.9908 21.5677C78.7338 21.2777 78.4088 21.0514 78.1636 20.7515C77.5982 20.0598 77.5606 18.9921 78.0758 18.2628C78.3786 17.8342 78.8469 17.5158 79.0426 17.0296C79.2094 16.6152 79.1488 16.1494 79.0856 15.7076C79.0045 15.1398 78.9233 14.572 78.8421 14.0042C78.7474 13.3418 78.6541 12.6557 78.8413 12.0129C79.2702 10.5401 80.9446 9.84833 81.9265 8.66526C82.3827 8.1155 82.6897 7.45433 83.1578 6.91446C83.9433 6.00849 85.18 5.50871 86.3792 5.6126C87.5784 5.71649 88.7093 6.42139 89.3251 7.44877" fill="#2E2E41"/>
<path d="M88.5172 7.38623C88.2702 7.47396 88.1785 7.79347 88.2496 8.04424C88.3207 8.29501 88.5069 8.49427 88.6773 8.69233C90.6044 10.9325 91.0523 14.3209 89.7727 16.9792C89.4324 17.6863 88.979 18.3517 88.7954 19.114C88.6618 19.6686 88.669 20.277 88.3592 20.7571C88.0439 21.246 87.4189 21.5735 87.3571 22.1509C87.3175 22.5214 87.5448 22.8812 87.8496 23.0984C88.1543 23.3157 88.5267 23.4151 88.8928 23.4961C89.8444 23.7067 90.8175 23.8217 91.7923 23.8387C92.1101 23.8443 92.438 23.8375 92.7296 23.7117C93.0211 23.5859 93.2699 23.3131 93.2733 22.9974C93.2759 22.7493 93.1318 22.5204 93.1134 22.2729C93.0584 21.5314 94.0629 21.1369 94.2586 20.4193C94.3873 19.9475 94.1338 19.462 93.8637 19.0533C93.5936 18.6447 93.2855 18.2156 93.2921 17.7268C93.2985 17.2589 93.5941 16.8468 93.709 16.3929C93.8679 15.7652 93.6727 15.1086 93.4791 14.4906C93.3144 13.9651 93.1498 13.4397 92.9852 12.9142C92.8101 12.3556 92.6351 11.7971 92.4601 11.2385C92.1546 10.2634 91.8338 9.25995 91.1726 8.47783C90.5114 7.69572 89.4159 7.1831 88.4392 7.50242" fill="#2E2E41"/>
<path d="M91.9618 26.8431L91.6153 26.7428C92.3372 24.2844 90.7807 19.6967 90.765 19.6506L91.1066 19.5349C91.1727 19.7274 92.7154 24.277 91.9618 26.8431Z" fill="#3F3C57"/>
<path d="M91.7886 29.6668C92.6212 29.6668 93.2962 28.9964 93.2962 28.1694C93.2962 27.3424 92.6212 26.6719 91.7886 26.6719C90.956 26.6719 90.281 27.3424 90.281 28.1694C90.281 28.9964 90.956 29.6668 91.7886 29.6668Z" fill="#3F3C57"/>
<path d="M81.8829 33.4707H80.9687C80.8689 33.4707 80.7882 33.3905 80.7882 33.2915C80.7882 33.1925 80.8689 33.1122 80.9687 33.1122H81.8829C82.1349 33.1122 82.3716 33.0147 82.5496 32.8376C82.7274 32.6605 82.8252 32.4252 82.8247 32.1751L82.8136 26.5815C82.8136 25.3663 81.8186 24.378 80.5956 24.378C79.3725 24.378 78.3774 25.3663 78.3774 26.5811L78.3885 31.8167C78.3895 32.3275 78.8088 32.7462 79.323 32.7502L79.9506 32.7549C80.0501 32.7557 80.1303 32.8365 80.1296 32.9355C80.1289 33.034 80.0482 33.1134 79.9492 33.1134H79.9478L79.3202 33.1087C78.6089 33.1032 78.029 32.5239 78.0276 31.8174L78.0165 26.5815C78.0165 25.1687 79.1734 24.0195 80.5956 24.0195C82.0176 24.0195 83.1745 25.1687 83.1745 26.5811L83.1856 32.1744C83.1863 32.5204 83.0511 32.8459 82.805 33.0908C82.5589 33.3358 82.2313 33.4707 81.8829 33.4707Z" fill="#3F3C57"/>
<path d="M79.9492 33.5694C80.3025 33.5694 80.5888 33.285 80.5888 32.9341C80.5888 32.5833 80.3025 32.2988 79.9492 32.2988C79.596 32.2988 79.3096 32.5833 79.3096 32.9341C79.3096 33.285 79.596 33.5694 79.9492 33.5694Z" fill="#3F3C57"/>
<path d="M80.9686 33.9268C81.3218 33.9268 81.6082 33.6424 81.6082 33.2915C81.6082 32.9406 81.3218 32.6562 80.9686 32.6562C80.6154 32.6562 80.329 32.9406 80.329 33.2915C80.329 33.6424 80.6154 33.9268 80.9686 33.9268Z" fill="#3F3C57"/>
<path d="M44.0447 24.1563L43.6983 24.056C44.4201 21.5976 42.8811 16.9388 42.8654 16.8928L43.2985 17.217C43.3646 17.4095 44.7983 21.5902 44.0447 24.1563Z" fill="#3F3C57"/>
<path d="M31.8656 24.593L32.212 24.4927C31.4902 22.0343 33.0467 17.4466 33.0623 17.4006L32.6917 17.6472C32.6256 17.8396 31.112 22.027 31.8656 24.593Z" fill="#3F3C57"/>
<path d="M43.8715 26.98C44.7041 26.98 45.3791 26.3096 45.3791 25.4826C45.3791 24.6556 44.7041 23.9852 43.8715 23.9852C43.0389 23.9852 42.3639 24.6556 42.3639 25.4826C42.3639 26.3096 43.0389 26.98 43.8715 26.98Z" fill="#3F3C57"/>
<path d="M33.4728 33.8016H32.5585C32.4588 33.8016 32.3781 33.7213 32.3781 33.6224C32.3781 33.5234 32.4588 33.4431 32.5585 33.4431H33.4728C33.7248 33.4431 33.9615 33.3456 34.1395 33.1685C34.3173 32.9914 34.4151 32.7561 34.4146 32.5059L34.4035 26.9123C34.4035 25.6972 33.4085 24.7089 32.1855 24.7089C30.9624 24.7089 29.9673 25.6972 29.9673 26.912L29.9784 32.1476C29.9794 32.6584 30.3987 33.0771 30.9129 33.081L31.5405 33.0858C31.64 33.0865 31.7202 33.1673 31.7195 33.2664C31.7188 33.3649 31.6381 33.4443 31.5391 33.4443H31.5376L30.9101 33.4395C30.1988 33.4341 29.6189 32.8548 29.6175 32.1483L29.6064 26.9123C29.6064 25.4996 30.7633 24.3504 32.1855 24.3504C33.6075 24.3504 34.7644 25.4996 34.7644 26.912L34.7755 32.5052C34.7762 32.8513 34.641 33.1768 34.3948 33.4217C34.1488 33.6666 33.8212 33.8016 33.4728 33.8016Z" fill="#3F3C57"/>
<path d="M31.5391 33.9003C31.8924 33.9003 32.1787 33.6159 32.1787 33.265C32.1787 32.9141 31.8924 32.6297 31.5391 32.6297C31.1859 32.6297 30.8995 32.9141 30.8995 33.265C30.8995 33.6159 31.1859 33.9003 31.5391 33.9003Z" fill="#3F3C57"/>
<path d="M32.5585 34.2577C32.9117 34.2577 33.1981 33.9732 33.1981 33.6224C33.1981 33.2715 32.9117 32.9871 32.5585 32.9871C32.2052 32.9871 31.9189 33.2715 31.9189 33.6224C31.9189 33.9732 32.2052 34.2577 32.5585 34.2577Z" fill="#3F3C57"/>
</g>
<defs>
<clipPath id="clip0_7719_933">
<rect width="125" height="107" fill="white" transform="translate(0 0.5)"/>
</clipPath>
</defs>
</svg>
