<svg width="839" height="250" viewBox="0 0 839 250" fill="none" xmlns="http://www.w3.org/2000/svg">
<path fill-rule="evenodd" clip-rule="evenodd" d="M537.546 0H693.301L713.71 250H481.855L537.546 0Z" fill="#C5CFD6"/>
<path fill-rule="evenodd" clip-rule="evenodd" d="M537.546 0H585.449L614.121 250H481.855L537.546 0Z" fill="black" fill-opacity="0.1"/>
<path fill-rule="evenodd" clip-rule="evenodd" d="M102.693 0C93.8568 0 86.6934 7.16345 86.6934 16V234C86.6934 242.837 93.8568 250 102.693 250H367.064C375.901 250 383.064 242.837 383.064 234V16C383.064 7.16344 375.901 0 367.064 0H102.693ZM147.145 56.4516C144.936 56.4516 143.145 58.2425 143.145 60.4516V189.548C143.145 191.758 144.936 193.548 147.145 193.548H322.613C324.822 193.548 326.613 191.758 326.613 189.548V60.4516C326.613 58.2425 324.822 56.4516 322.613 56.4516H147.145Z" fill="#C5CFD6"/>
</svg>
