<svg width="641" height="916" viewBox="0 0 641 916" fill="none" xmlns="http://www.w3.org/2000/svg">
<path fill-rule="evenodd" clip-rule="evenodd" d="M290.563 405.423L395.294 670.498L465.537 894.598H493.275L385.888 405.423L290.563 405.423Z" fill="#997659"/>
<path fill-rule="evenodd" clip-rule="evenodd" d="M269.475 405.423C268.359 498.572 252.095 623.983 249.497 629.789C246.898 635.596 70.0903 777.468 70.0903 777.468L89.1947 797.912C89.1947 797.912 297.812 676.274 307.465 660.051C317.119 643.827 348.548 494.537 373.782 405.423H269.475Z" fill="#B28B67"/>
<path fill-rule="evenodd" clip-rule="evenodd" d="M72.5038 771.263C72.2051 770.131 71.0242 769.463 69.9174 769.845C66.0102 771.193 57.6153 774.292 54.2754 777.095C49.8539 780.805 42.6075 789.396 42.6075 789.396C46.9114 794.525 119.967 881.589 119.967 881.589C119.967 881.589 134.863 875.214 129.314 866.676C123.764 858.139 120.23 852.377 120.23 852.377L103.056 792.376C102.901 791.834 102.33 791.527 101.793 791.698L91.6881 794.902C91.6881 794.902 82.3295 790.541 78.5692 786.059C75.7733 782.727 73.4906 775.005 72.5038 771.263Z" fill="#E4E4E4"/>
<path fill-rule="evenodd" clip-rule="evenodd" d="M457.848 880.844C456.789 880.345 455.519 880.821 455.1 881.914C453.621 885.774 450.599 894.197 450.599 898.556C450.599 904.328 452.522 915.401 452.522 915.401C459.217 915.401 572.872 915.401 572.872 915.401C572.872 915.401 577.563 899.892 567.456 898.656C557.349 897.419 550.663 896.423 550.663 896.423L493.66 871.01C493.146 870.781 492.543 871.022 492.329 871.543L488.288 881.343C488.288 881.343 478.932 885.709 473.082 885.709C468.732 885.709 461.349 882.493 457.848 880.844Z" fill="#E4E4E4"/>
<path fill-rule="evenodd" clip-rule="evenodd" d="M360.979 871.515L492.858 857.203L395.12 405.423H277.001L360.979 871.515Z" fill="#69A1AC"/>
<path fill-rule="evenodd" clip-rule="evenodd" d="M97.3691 744.485L183.874 846.876C183.874 846.876 320.544 697.608 343.231 652.082C365.919 606.555 384.022 405.423 384.022 405.423H251.042C251.042 405.423 241.153 582.37 237.711 590.604C234.268 598.838 97.3691 744.485 97.3691 744.485Z" fill="#89C5CC"/>
<path fill-rule="evenodd" clip-rule="evenodd" d="M302.458 165.811C326.845 165.811 335.714 136.615 349.569 120.593C359.482 109.129 376.4 112.547 381.408 96.4986C394.001 56.1427 360.297 27.7394 316.327 27.7394C272.358 27.7394 242.711 52.6499 236.31 90.0972C229.908 127.544 258.488 165.811 302.458 165.811Z" fill="#191847"/>
<path fill-rule="evenodd" clip-rule="evenodd" d="M330.059 160.557C343.877 168.885 357.453 172.909 363.826 171.266C379.807 167.147 381.276 108.685 368.911 85.638C356.546 62.5905 292.98 52.5449 289.776 98.2093C288.664 114.058 295.319 128.202 305.151 139.743L287.521 221.916H338.732L330.059 160.557Z" fill="#B28B67"/>
<path fill-rule="evenodd" clip-rule="evenodd" d="M293.105 66.1479C253.878 104.556 293.255 145.38 304.043 145.38C304.74 139.838 306.864 134.448 309.977 129.317C308.324 127.176 307.344 124.513 307.344 121.627C307.344 114.556 313.226 108.824 320.481 108.824C322.747 108.824 324.879 109.383 326.74 110.368C342.466 96.9556 362.19 87.6057 371.984 85.7672C389.017 82.5696 332.331 27.7395 293.105 66.1479Z" fill="#191847"/>
<path fill-rule="evenodd" clip-rule="evenodd" d="M106.109 476.472C114.067 464.78 160.1 340.446 160.1 340.446L197.894 345.935C197.894 345.935 137.042 477.962 132.647 485.582C126.938 495.481 131.987 511.739 135.412 522.763C135.941 524.468 136.432 526.048 136.838 527.46C129.645 529.537 126.909 525.42 124.024 521.08C120.766 516.177 117.318 510.99 107.045 514.12C103.076 515.33 99.2632 516.884 95.5378 518.402C82.6697 523.645 70.8483 528.461 57.2706 517.198C55.1181 515.413 53.3048 509.574 60.1466 506.172C77.1921 497.697 102.219 482.188 106.109 476.472ZM516.186 418.684L451.773 364.076L434.169 400.13L499.457 432.714C516.911 456.381 526.893 466.436 529.404 462.88C531.52 459.882 530.242 456.847 529.064 454.051C528.147 451.874 527.291 449.841 528.149 448.084C530.107 444.073 542.851 445.401 554.89 447.178C566.929 448.955 563.778 443.322 561.045 440.459C549.207 432.199 534.254 424.941 516.186 418.684Z" fill="#B28B67"/>
<path fill-rule="evenodd" clip-rule="evenodd" d="M314.236 187.484L337.654 179.74C369.422 259.097 416.798 335.878 495.955 400.733L476.381 434.504C406.813 393.524 340.959 361.69 314.236 300.198C305.267 279.559 313.504 212.162 314.236 187.484Z" fill="#C5CFD6"/>
<path fill-rule="evenodd" clip-rule="evenodd" d="M233.803 410.825C233.803 410.825 334.428 421.494 392.208 410.825C396.981 409.944 397.734 401.954 395.52 396.531C361.055 312.082 337.421 238.396 337.421 179.74C327.935 184.522 304.218 181.173 304.218 181.173C261.726 241.62 242.194 310.976 233.803 410.825Z" fill="#5872FF"/>
<path fill-rule="evenodd" clip-rule="evenodd" d="M292.04 176.107C293.137 175.368 293.716 175 293.716 175L293.654 176.107H311.363C312.252 181.34 313.556 200.737 315.456 229.021C322.363 331.8 337.155 551.927 368.639 636.167H151.406C155.99 540.393 191.3 425.861 227.879 328.61C200.887 355.465 169.364 400.482 143.888 475.421L103.198 464.976C144.665 286.293 266.155 194.141 289.728 177.694C289.959 177.162 290.188 176.633 290.415 176.107H292.04Z" fill="#DDE3E9"/>
</svg>
